<svg xmlns="http://www.w3.org/2000/svg" width="1707" height="940" style="cursor: move;"><g transform="translate(-250, -100) scale(1)"><path class="link" marker-end="" d="M458.5,378, 745.5,231.5" style="stroke-width: 0.91; stroke-opacity: 1; stroke: rgb(80, 80, 80); fill: none;"/><path class="link" marker-end="" d="M458.5,378, 745.5,292.5" style="stroke-width: 0.91; stroke-opacity: 1; stroke: rgb(80, 80, 80); fill: none;"/><path class="link" marker-end="" d="M458.5,378, 745.5,353.5" style="stroke-width: 0.91; stroke-opacity: 1; stroke: rgb(80, 80, 80); fill: none;"/><path class="link" marker-end="" d="M458.5,378, 745.5,414.5" style="stroke-width: 0.91; stroke-opacity: 1; stroke: rgb(80, 80, 80); fill: none;"/><path class="link" marker-end="" d="M458.5,378, 745.5,475.5" style="stroke-width: 0.91; stroke-opacity: 1; stroke: rgb(80, 80, 80); fill: none;"/><path class="link" marker-end="" d="M458.5,378, 745.5,536.5" style="stroke-width: 0.91; stroke-opacity: 1; stroke: rgb(80, 80, 80); fill: none;"/><path class="link" marker-end="" d="M458.5,378, 745.5,597.5" style="stroke-width: 0.91; stroke-opacity: 1; stroke: rgb(80, 80, 80); fill: none;"/><path class="link" marker-end="" d="M458.5,378, 745.5,658.5" style="stroke-width: 0.91; stroke-opacity: 1; stroke: rgb(80, 80, 80); fill: none;"/><path class="link" marker-end="" d="M458.5,378, 745.5,719.5" style="stroke-width: 0.91; stroke-opacity: 1; stroke: rgb(80, 80, 80); fill: none;"/><path class="link" marker-end="" d="M458.5,512, 745.5,231.5" style="stroke-width: 0.91; stroke-opacity: 1; stroke: rgb(80, 80, 80); fill: none;"/><path class="link" marker-end="" d="M458.5,512, 745.5,292.5" style="stroke-width: 0.91; stroke-opacity: 1; stroke: rgb(80, 80, 80); fill: none;"/><path class="link" marker-end="" d="M458.5,512, 745.5,353.5" style="stroke-width: 0.91; stroke-opacity: 1; stroke: rgb(80, 80, 80); fill: none;"/><path class="link" marker-end="" d="M458.5,512, 745.5,414.5" style="stroke-width: 0.91; stroke-opacity: 1; stroke: rgb(80, 80, 80); fill: none;"/><path class="link" marker-end="" d="M458.5,512, 745.5,475.5" style="stroke-width: 0.91; stroke-opacity: 1; stroke: rgb(80, 80, 80); fill: none;"/><path class="link" marker-end="" d="M458.5,512, 745.5,536.5" style="stroke-width: 0.91; stroke-opacity: 1; stroke: rgb(80, 80, 80); fill: none;"/><path class="link" marker-end="" d="M458.5,512, 745.5,597.5" style="stroke-width: 0.91; stroke-opacity: 1; stroke: rgb(80, 80, 80); fill: none;"/><path class="link" marker-end="" d="M458.5,512, 745.5,658.5" style="stroke-width: 0.91; stroke-opacity: 1; stroke: rgb(80, 80, 80); fill: none;"/><path class="link" marker-end="" d="M458.5,512, 745.5,719.5" style="stroke-width: 0.91; stroke-opacity: 1; stroke: rgb(80, 80, 80); fill: none;"/><path class="link" marker-end="" d="M745.5,170.5, 1032.5,247.5" style="stroke-width: 0.91; stroke-opacity: 1; stroke: rgb(80, 80, 80); fill: none;"/><path class="link" marker-end="" d="M745.5,170.5, 1032.5,326.5" style="stroke-width: 0.91; stroke-opacity: 1; stroke: rgb(80, 80, 80); fill: none;"/><path class="link" marker-end="" d="M745.5,170.5, 1032.5,405.5" style="stroke-width: 0.91; stroke-opacity: 1; stroke: rgb(80, 80, 80); fill: none;"/><path class="link" marker-end="" d="M745.5,170.5, 1032.5,484.5" style="stroke-width: 0.91; stroke-opacity: 1; stroke: rgb(80, 80, 80); fill: none;"/><path class="link" marker-end="" d="M745.5,170.5, 1032.5,563.5" style="stroke-width: 0.91; stroke-opacity: 1; stroke: rgb(80, 80, 80); fill: none;"/><path class="link" marker-end="" d="M745.5,170.5, 1032.5,642.5" style="stroke-width: 0.91; stroke-opacity: 1; stroke: rgb(80, 80, 80); fill: none;"/><path class="link" marker-end="" d="M745.5,170.5, 1032.5,721.5" style="stroke-width: 0.91; stroke-opacity: 1; stroke: rgb(80, 80, 80); fill: none;"/><path class="link" marker-end="" d="M745.5,231.5, 1032.5,247.5" style="stroke-width: 0.91; stroke-opacity: 1; stroke: rgb(80, 80, 80); fill: none;"/><path class="link" marker-end="" d="M745.5,231.5, 1032.5,326.5" style="stroke-width: 0.91; stroke-opacity: 1; stroke: rgb(80, 80, 80); fill: none;"/><path class="link" marker-end="" d="M745.5,231.5, 1032.5,405.5" style="stroke-width: 0.91; stroke-opacity: 1; stroke: rgb(80, 80, 80); fill: none;"/><path class="link" marker-end="" d="M745.5,231.5, 1032.5,484.5" style="stroke-width: 0.91; stroke-opacity: 1; stroke: rgb(80, 80, 80); fill: none;"/><path class="link" marker-end="" d="M745.5,231.5, 1032.5,563.5" style="stroke-width: 0.91; stroke-opacity: 1; stroke: rgb(80, 80, 80); fill: none;"/><path class="link" marker-end="" d="M745.5,231.5, 1032.5,642.5" style="stroke-width: 0.91; stroke-opacity: 1; stroke: rgb(80, 80, 80); fill: none;"/><path class="link" marker-end="" d="M745.5,231.5, 1032.5,721.5" style="stroke-width: 0.91; stroke-opacity: 1; stroke: rgb(80, 80, 80); fill: none;"/><path class="link" marker-end="" d="M745.5,292.5, 1032.5,247.5" style="stroke-width: 0.91; stroke-opacity: 1; stroke: rgb(80, 80, 80); fill: none;"/><path class="link" marker-end="" d="M745.5,292.5, 1032.5,326.5" style="stroke-width: 0.91; stroke-opacity: 1; stroke: rgb(80, 80, 80); fill: none;"/><path class="link" marker-end="" d="M745.5,292.5, 1032.5,405.5" style="stroke-width: 0.91; stroke-opacity: 1; stroke: rgb(80, 80, 80); fill: none;"/><path class="link" marker-end="" d="M745.5,292.5, 1032.5,484.5" style="stroke-width: 0.91; stroke-opacity: 1; stroke: rgb(80, 80, 80); fill: none;"/><path class="link" marker-end="" d="M745.5,292.5, 1032.5,563.5" style="stroke-width: 0.91; stroke-opacity: 1; stroke: rgb(80, 80, 80); fill: none;"/><path class="link" marker-end="" d="M745.5,292.5, 1032.5,642.5" style="stroke-width: 0.91; stroke-opacity: 1; stroke: rgb(80, 80, 80); fill: none;"/><path class="link" marker-end="" d="M745.5,292.5, 1032.5,721.5" style="stroke-width: 0.91; stroke-opacity: 1; stroke: rgb(80, 80, 80); fill: none;"/><path class="link" marker-end="" d="M745.5,353.5, 1032.5,247.5" style="stroke-width: 0.91; stroke-opacity: 1; stroke: rgb(80, 80, 80); fill: none;"/><path class="link" marker-end="" d="M745.5,353.5, 1032.5,326.5" style="stroke-width: 0.91; stroke-opacity: 1; stroke: rgb(80, 80, 80); fill: none;"/><path class="link" marker-end="" d="M745.5,353.5, 1032.5,405.5" style="stroke-width: 0.91; stroke-opacity: 1; stroke: rgb(80, 80, 80); fill: none;"/><path class="link" marker-end="" d="M745.5,353.5, 1032.5,484.5" style="stroke-width: 0.91; stroke-opacity: 1; stroke: rgb(80, 80, 80); fill: none;"/><path class="link" marker-end="" d="M745.5,353.5, 1032.5,563.5" style="stroke-width: 0.91; stroke-opacity: 1; stroke: rgb(80, 80, 80); fill: none;"/><path class="link" marker-end="" d="M745.5,353.5, 1032.5,642.5" style="stroke-width: 0.91; stroke-opacity: 1; stroke: rgb(80, 80, 80); fill: none;"/><path class="link" marker-end="" d="M745.5,353.5, 1032.5,721.5" style="stroke-width: 0.91; stroke-opacity: 1; stroke: rgb(80, 80, 80); fill: none;"/><path class="link" marker-end="" d="M745.5,414.5, 1032.5,247.5" style="stroke-width: 0.91; stroke-opacity: 1; stroke: rgb(80, 80, 80); fill: none;"/><path class="link" marker-end="" d="M745.5,414.5, 1032.5,326.5" style="stroke-width: 0.91; stroke-opacity: 1; stroke: rgb(80, 80, 80); fill: none;"/><path class="link" marker-end="" d="M745.5,414.5, 1032.5,405.5" style="stroke-width: 0.91; stroke-opacity: 1; stroke: rgb(80, 80, 80); fill: none;"/><path class="link" marker-end="" d="M745.5,414.5, 1032.5,484.5" style="stroke-width: 0.91; stroke-opacity: 1; stroke: rgb(80, 80, 80); fill: none;"/><path class="link" marker-end="" d="M745.5,414.5, 1032.5,563.5" style="stroke-width: 0.91; stroke-opacity: 1; stroke: rgb(80, 80, 80); fill: none;"/><path class="link" marker-end="" d="M745.5,414.5, 1032.5,642.5" style="stroke-width: 0.91; stroke-opacity: 1; stroke: rgb(80, 80, 80); fill: none;"/><path class="link" marker-end="" d="M745.5,414.5, 1032.5,721.5" style="stroke-width: 0.91; stroke-opacity: 1; stroke: rgb(80, 80, 80); fill: none;"/><path class="link" marker-end="" d="M745.5,475.5, 1032.5,247.5" style="stroke-width: 0.91; stroke-opacity: 1; stroke: rgb(80, 80, 80); fill: none;"/><path class="link" marker-end="" d="M745.5,475.5, 1032.5,326.5" style="stroke-width: 0.91; stroke-opacity: 1; stroke: rgb(80, 80, 80); fill: none;"/><path class="link" marker-end="" d="M745.5,475.5, 1032.5,405.5" style="stroke-width: 0.91; stroke-opacity: 1; stroke: rgb(80, 80, 80); fill: none;"/><path class="link" marker-end="" d="M745.5,475.5, 1032.5,484.5" style="stroke-width: 0.91; stroke-opacity: 1; stroke: rgb(80, 80, 80); fill: none;"/><path class="link" marker-end="" d="M745.5,475.5, 1032.5,563.5" style="stroke-width: 0.91; stroke-opacity: 1; stroke: rgb(80, 80, 80); fill: none;"/><path class="link" marker-end="" d="M745.5,475.5, 1032.5,642.5" style="stroke-width: 0.91; stroke-opacity: 1; stroke: rgb(80, 80, 80); fill: none;"/><path class="link" marker-end="" d="M745.5,475.5, 1032.5,721.5" style="stroke-width: 0.91; stroke-opacity: 1; stroke: rgb(80, 80, 80); fill: none;"/><path class="link" marker-end="" d="M745.5,536.5, 1032.5,247.5" style="stroke-width: 0.91; stroke-opacity: 1; stroke: rgb(80, 80, 80); fill: none;"/><path class="link" marker-end="" d="M745.5,536.5, 1032.5,326.5" style="stroke-width: 0.91; stroke-opacity: 1; stroke: rgb(80, 80, 80); fill: none;"/><path class="link" marker-end="" d="M745.5,536.5, 1032.5,405.5" style="stroke-width: 0.91; stroke-opacity: 1; stroke: rgb(80, 80, 80); fill: none;"/><path class="link" marker-end="" d="M745.5,536.5, 1032.5,484.5" style="stroke-width: 0.91; stroke-opacity: 1; stroke: rgb(80, 80, 80); fill: none;"/><path class="link" marker-end="" d="M745.5,536.5, 1032.5,563.5" style="stroke-width: 0.91; stroke-opacity: 1; stroke: rgb(80, 80, 80); fill: none;"/><path class="link" marker-end="" d="M745.5,536.5, 1032.5,642.5" style="stroke-width: 0.91; stroke-opacity: 1; stroke: rgb(80, 80, 80); fill: none;"/><path class="link" marker-end="" d="M745.5,536.5, 1032.5,721.5" style="stroke-width: 0.91; stroke-opacity: 1; stroke: rgb(80, 80, 80); fill: none;"/><path class="link" marker-end="" d="M745.5,597.5, 1032.5,247.5" style="stroke-width: 0.91; stroke-opacity: 1; stroke: rgb(80, 80, 80); fill: none;"/><path class="link" marker-end="" d="M745.5,597.5, 1032.5,326.5" style="stroke-width: 0.91; stroke-opacity: 1; stroke: rgb(80, 80, 80); fill: none;"/><path class="link" marker-end="" d="M745.5,597.5, 1032.5,405.5" style="stroke-width: 0.91; stroke-opacity: 1; stroke: rgb(80, 80, 80); fill: none;"/><path class="link" marker-end="" d="M745.5,597.5, 1032.5,484.5" style="stroke-width: 0.91; stroke-opacity: 1; stroke: rgb(80, 80, 80); fill: none;"/><path class="link" marker-end="" d="M745.5,597.5, 1032.5,563.5" style="stroke-width: 0.91; stroke-opacity: 1; stroke: rgb(80, 80, 80); fill: none;"/><path class="link" marker-end="" d="M745.5,597.5, 1032.5,642.5" style="stroke-width: 0.91; stroke-opacity: 1; stroke: rgb(80, 80, 80); fill: none;"/><path class="link" marker-end="" d="M745.5,597.5, 1032.5,721.5" style="stroke-width: 0.91; stroke-opacity: 1; stroke: rgb(80, 80, 80); fill: none;"/><path class="link" marker-end="" d="M745.5,658.5, 1032.5,247.5" style="stroke-width: 0.91; stroke-opacity: 1; stroke: rgb(80, 80, 80); fill: none;"/><path class="link" marker-end="" d="M745.5,658.5, 1032.5,326.5" style="stroke-width: 0.91; stroke-opacity: 1; stroke: rgb(80, 80, 80); fill: none;"/><path class="link" marker-end="" d="M745.5,658.5, 1032.5,405.5" style="stroke-width: 0.91; stroke-opacity: 1; stroke: rgb(80, 80, 80); fill: none;"/><path class="link" marker-end="" d="M745.5,658.5, 1032.5,484.5" style="stroke-width: 0.91; stroke-opacity: 1; stroke: rgb(80, 80, 80); fill: none;"/><path class="link" marker-end="" d="M745.5,658.5, 1032.5,563.5" style="stroke-width: 0.91; stroke-opacity: 1; stroke: rgb(80, 80, 80); fill: none;"/><path class="link" marker-end="" d="M745.5,658.5, 1032.5,642.5" style="stroke-width: 0.91; stroke-opacity: 1; stroke: rgb(80, 80, 80); fill: none;"/><path class="link" marker-end="" d="M745.5,658.5, 1032.5,721.5" style="stroke-width: 0.91; stroke-opacity: 1; stroke: rgb(80, 80, 80); fill: none;"/><path class="link" marker-end="" d="M745.5,719.5, 1032.5,247.5" style="stroke-width: 0.91; stroke-opacity: 1; stroke: rgb(80, 80, 80); fill: none;"/><path class="link" marker-end="" d="M745.5,719.5, 1032.5,326.5" style="stroke-width: 0.91; stroke-opacity: 1; stroke: rgb(80, 80, 80); fill: none;"/><path class="link" marker-end="" d="M745.5,719.5, 1032.5,405.5" style="stroke-width: 0.91; stroke-opacity: 1; stroke: rgb(80, 80, 80); fill: none;"/><path class="link" marker-end="" d="M745.5,719.5, 1032.5,484.5" style="stroke-width: 0.91; stroke-opacity: 1; stroke: rgb(80, 80, 80); fill: none;"/><path class="link" marker-end="" d="M745.5,719.5, 1032.5,563.5" style="stroke-width: 0.91; stroke-opacity: 1; stroke: rgb(80, 80, 80); fill: none;"/><path class="link" marker-end="" d="M745.5,719.5, 1032.5,642.5" style="stroke-width: 0.91; stroke-opacity: 1; stroke: rgb(80, 80, 80); fill: none;"/><path class="link" marker-end="" d="M745.5,719.5, 1032.5,721.5" style="stroke-width: 0.91; stroke-opacity: 1; stroke: rgb(80, 80, 80); fill: none;"/><path class="link" marker-end="" d="M1032.5,168.5, 1319.5,372" style="stroke-width: 0.91; stroke-opacity: 1; stroke: rgb(80, 80, 80); fill: none;"/><path class="link" marker-end="" d="M1032.5,168.5, 1319.5,518" style="stroke-width: 0.91; stroke-opacity: 1; stroke: rgb(80, 80, 80); fill: none;"/><path class="link" marker-end="" d="M1032.5,168.5, 1319.5,664" style="stroke-width: 0.91; stroke-opacity: 1; stroke: rgb(80, 80, 80); fill: none;"/><path class="link" marker-end="" d="M1032.5,247.5, 1319.5,372" style="stroke-width: 0.91; stroke-opacity: 1; stroke: rgb(80, 80, 80); fill: none;"/><path class="link" marker-end="" d="M1032.5,247.5, 1319.5,518" style="stroke-width: 0.91; stroke-opacity: 1; stroke: rgb(80, 80, 80); fill: none;"/><path class="link" marker-end="" d="M1032.5,247.5, 1319.5,664" style="stroke-width: 0.91; stroke-opacity: 1; stroke: rgb(80, 80, 80); fill: none;"/><path class="link" marker-end="" d="M1032.5,326.5, 1319.5,372" style="stroke-width: 0.91; stroke-opacity: 1; stroke: rgb(80, 80, 80); fill: none;"/><path class="link" marker-end="" d="M1032.5,326.5, 1319.5,518" style="stroke-width: 0.91; stroke-opacity: 1; stroke: rgb(80, 80, 80); fill: none;"/><path class="link" marker-end="" d="M1032.5,326.5, 1319.5,664" style="stroke-width: 0.91; stroke-opacity: 1; stroke: rgb(80, 80, 80); fill: none;"/><path class="link" marker-end="" d="M1032.5,405.5, 1319.5,372" style="stroke-width: 0.91; stroke-opacity: 1; stroke: rgb(80, 80, 80); fill: none;"/><path class="link" marker-end="" d="M1032.5,405.5, 1319.5,518" style="stroke-width: 0.91; stroke-opacity: 1; stroke: rgb(80, 80, 80); fill: none;"/><path class="link" marker-end="" d="M1032.5,405.5, 1319.5,664" style="stroke-width: 0.91; stroke-opacity: 1; stroke: rgb(80, 80, 80); fill: none;"/><path class="link" marker-end="" d="M1032.5,484.5, 1319.5,372" style="stroke-width: 0.91; stroke-opacity: 1; stroke: rgb(80, 80, 80); fill: none;"/><path class="link" marker-end="" d="M1032.5,484.5, 1319.5,518" style="stroke-width: 0.91; stroke-opacity: 1; stroke: rgb(80, 80, 80); fill: none;"/><path class="link" marker-end="" d="M1032.5,484.5, 1319.5,664" style="stroke-width: 0.91; stroke-opacity: 1; stroke: rgb(80, 80, 80); fill: none;"/><path class="link" marker-end="" d="M1032.5,563.5, 1319.5,372" style="stroke-width: 0.91; stroke-opacity: 1; stroke: rgb(80, 80, 80); fill: none;"/><path class="link" marker-end="" d="M1032.5,563.5, 1319.5,518" style="stroke-width: 0.91; stroke-opacity: 1; stroke: rgb(80, 80, 80); fill: none;"/><path class="link" marker-end="" d="M1032.5,563.5, 1319.5,664" style="stroke-width: 0.91; stroke-opacity: 1; stroke: rgb(80, 80, 80); fill: none;"/><path class="link" marker-end="" d="M1032.5,642.5, 1319.5,372" style="stroke-width: 0.91; stroke-opacity: 1; stroke: rgb(80, 80, 80); fill: none;"/><path class="link" marker-end="" d="M1032.5,642.5, 1319.5,518" style="stroke-width: 0.91; stroke-opacity: 1; stroke: rgb(80, 80, 80); fill: none;"/><path class="link" marker-end="" d="M1032.5,642.5, 1319.5,664" style="stroke-width: 0.91; stroke-opacity: 1; stroke: rgb(80, 80, 80); fill: none;"/><path class="link" marker-end="" d="M1032.5,721.5, 1319.5,372" style="stroke-width: 0.91; stroke-opacity: 1; stroke: rgb(80, 80, 80); fill: none;"/><path class="link" marker-end="" d="M1032.5,721.5, 1319.5,518" style="stroke-width: 0.91; stroke-opacity: 1; stroke: rgb(80, 80, 80); fill: none;"/><path class="link" marker-end="" d="M1032.5,721.5, 1319.5,664" style="stroke-width: 0.91; stroke-opacity: 1; stroke: rgb(80, 80, 80); fill: none;"/><path class="link" marker-end="" d="M1319.5,226, 1606.5,370" style="stroke-width: 0.91; stroke-opacity: 1; stroke: rgb(80, 80, 80); fill: none;"/><path class="link" marker-end="" d="M1319.5,226, 1606.5,520" style="stroke-width: 0.91; stroke-opacity: 1; stroke: rgb(80, 80, 80); fill: none;"/><path class="link" marker-end="" d="M1319.5,372, 1606.5,370" style="stroke-width: 0.91; stroke-opacity: 1; stroke: rgb(80, 80, 80); fill: none;"/><path class="link" marker-end="" d="M1319.5,372, 1606.5,520" style="stroke-width: 0.91; stroke-opacity: 1; stroke: rgb(80, 80, 80); fill: none;"/><path class="link" marker-end="" d="M1319.5,518, 1606.5,370" style="stroke-width: 0.91; stroke-opacity: 1; stroke: rgb(80, 80, 80); fill: none;"/><path class="link" marker-end="" d="M1319.5,518, 1606.5,520" style="stroke-width: 0.91; stroke-opacity: 1; stroke: rgb(80, 80, 80); fill: none;"/><path class="link" marker-end="" d="M1319.5,664, 1606.5,370" style="stroke-width: 0.91; stroke-opacity: 1; stroke: rgb(80, 80, 80); fill: none;"/><path class="link" marker-end="" d="M1319.5,664, 1606.5,520" style="stroke-width: 0.91; stroke-opacity: 1; stroke: rgb(80, 80, 80); fill: none;"/><path class="link" marker-end="" d="M458.5,378, 745.5,170.5" style="stroke-width: 0.91; stroke-opacity: 1; stroke: rgb(80, 80, 80); fill: none;"/><path class="link" marker-end="" d="M458.5,512, 745.5,170.5" style="stroke-width: 0.91; stroke-opacity: 1; stroke: rgb(80, 80, 80); fill: none;"/><path class="link" marker-end="" d="M745.5,170.5, 1032.5,168.5" style="stroke-width: 0.91; stroke-opacity: 1; stroke: rgb(80, 80, 80); fill: none;"/><path class="link" marker-end="" d="M745.5,231.5, 1032.5,168.5" style="stroke-width: 0.91; stroke-opacity: 1; stroke: rgb(80, 80, 80); fill: none;"/><path class="link" marker-end="" d="M745.5,292.5, 1032.5,168.5" style="stroke-width: 0.91; stroke-opacity: 1; stroke: rgb(80, 80, 80); fill: none;"/><path class="link" marker-end="" d="M745.5,353.5, 1032.5,168.5" style="stroke-width: 0.91; stroke-opacity: 1; stroke: rgb(80, 80, 80); fill: none;"/><path class="link" marker-end="" d="M745.5,414.5, 1032.5,168.5" style="stroke-width: 0.91; stroke-opacity: 1; stroke: rgb(80, 80, 80); fill: none;"/><path class="link" marker-end="" d="M745.5,475.5, 1032.5,168.5" style="stroke-width: 0.91; stroke-opacity: 1; stroke: rgb(80, 80, 80); fill: none;"/><path class="link" marker-end="" d="M745.5,536.5, 1032.5,168.5" style="stroke-width: 0.91; stroke-opacity: 1; stroke: rgb(80, 80, 80); fill: none;"/><path class="link" marker-end="" d="M745.5,597.5, 1032.5,168.5" style="stroke-width: 0.91; stroke-opacity: 1; stroke: rgb(80, 80, 80); fill: none;"/><path class="link" marker-end="" d="M745.5,658.5, 1032.5,168.5" style="stroke-width: 0.91; stroke-opacity: 1; stroke: rgb(80, 80, 80); fill: none;"/><path class="link" marker-end="" d="M745.5,719.5, 1032.5,168.5" style="stroke-width: 0.91; stroke-opacity: 1; stroke: rgb(80, 80, 80); fill: none;"/><path class="link" marker-end="" d="M1032.5,168.5, 1319.5,226" style="stroke-width: 0.91; stroke-opacity: 1; stroke: rgb(80, 80, 80); fill: none;"/><path class="link" marker-end="" d="M1032.5,247.5, 1319.5,226" style="stroke-width: 0.91; stroke-opacity: 1; stroke: rgb(80, 80, 80); fill: none;"/><path class="link" marker-end="" d="M1032.5,326.5, 1319.5,226" style="stroke-width: 0.91; stroke-opacity: 1; stroke: rgb(80, 80, 80); fill: none;"/><path class="link" marker-end="" d="M1032.5,405.5, 1319.5,226" style="stroke-width: 0.91; stroke-opacity: 1; stroke: rgb(80, 80, 80); fill: none;"/><path class="link" marker-end="" d="M1032.5,484.5, 1319.5,226" style="stroke-width: 0.91; stroke-opacity: 1; stroke: rgb(80, 80, 80); fill: none;"/><path class="link" marker-end="" d="M1032.5,563.5, 1319.5,226" style="stroke-width: 0.91; stroke-opacity: 1; stroke: rgb(80, 80, 80); fill: none;"/><path class="link" marker-end="" d="M1032.5,642.5, 1319.5,226" style="stroke-width: 0.91; stroke-opacity: 1; stroke: rgb(80, 80, 80); fill: none;"/><path class="link" marker-end="" d="M1032.5,721.5, 1319.5,226" style="stroke-width: 0.91; stroke-opacity: 1; stroke: rgb(80, 80, 80); fill: none;"/><circle r="25" class="node" id="0_0" cx="458.5" cy="378" style="fill: rgb(255, 255, 255); stroke: rgb(51, 51, 51);"/><circle r="25" class="node" id="0_1" cx="458.5" cy="512" style="fill: rgb(255, 255, 255); stroke: rgb(51, 51, 51);"/><circle r="25" class="node" id="1_0" cx="745.5" cy="170.5" style="fill: rgb(255, 255, 255); stroke: rgb(51, 51, 51);"/><circle r="25" class="node" id="1_1" cx="745.5" cy="231.5" style="fill: rgb(255, 255, 255); stroke: rgb(51, 51, 51);"/><circle r="25" class="node" id="1_2" cx="745.5" cy="292.5" style="fill: rgb(255, 255, 255); stroke: rgb(51, 51, 51);"/><circle r="25" class="node" id="1_3" cx="745.5" cy="353.5" style="fill: rgb(255, 255, 255); stroke: rgb(51, 51, 51);"/><circle r="25" class="node" id="1_4" cx="745.5" cy="414.5" style="fill: rgb(255, 255, 255); stroke: rgb(51, 51, 51);"/><circle r="25" class="node" id="1_5" cx="745.5" cy="475.5" style="fill: rgb(255, 255, 255); stroke: rgb(51, 51, 51);"/><circle r="25" class="node" id="1_6" cx="745.5" cy="536.5" style="fill: rgb(255, 255, 255); stroke: rgb(51, 51, 51);"/><circle r="25" class="node" id="1_7" cx="745.5" cy="597.5" style="fill: rgb(255, 255, 255); stroke: rgb(51, 51, 51);"/><circle r="25" class="node" id="1_8" cx="745.5" cy="658.5" style="fill: rgb(255, 255, 255); stroke: rgb(51, 51, 51);"/><circle r="25" class="node" id="1_9" cx="745.5" cy="719.5" style="fill: rgb(255, 255, 255); stroke: rgb(51, 51, 51);"/><circle r="25" class="node" id="2_0" cx="1032.5" cy="168.5" style="fill: rgb(255, 255, 255); stroke: rgb(51, 51, 51);"/><circle r="25" class="node" id="2_1" cx="1032.5" cy="247.5" style="fill: rgb(255, 255, 255); stroke: rgb(51, 51, 51);"/><circle r="25" class="node" id="2_2" cx="1032.5" cy="326.5" style="fill: rgb(255, 255, 255); stroke: rgb(51, 51, 51);"/><circle r="25" class="node" id="2_3" cx="1032.5" cy="405.5" style="fill: rgb(255, 255, 255); stroke: rgb(51, 51, 51);"/><circle r="25" class="node" id="2_4" cx="1032.5" cy="484.5" style="fill: rgb(255, 255, 255); stroke: rgb(51, 51, 51);"/><circle r="25" class="node" id="2_5" cx="1032.5" cy="563.5" style="fill: rgb(255, 255, 255); stroke: rgb(51, 51, 51);"/><circle r="25" class="node" id="2_6" cx="1032.5" cy="642.5" style="fill: rgb(255, 255, 255); stroke: rgb(51, 51, 51);"/><circle r="25" class="node" id="2_7" cx="1032.5" cy="721.5" style="fill: rgb(255, 255, 255); stroke: rgb(51, 51, 51);"/><circle r="25" class="node" id="3_0" cx="1319.5" cy="226" style="fill: rgb(255, 255, 255); stroke: rgb(51, 51, 51);"/><circle r="25" class="node" id="3_1" cx="1319.5" cy="372" style="fill: rgb(255, 255, 255); stroke: rgb(51, 51, 51);"/><circle r="25" class="node" id="3_2" cx="1319.5" cy="518" style="fill: rgb(255, 255, 255); stroke: rgb(51, 51, 51);"/><circle r="25" class="node" id="3_3" cx="1319.5" cy="664" style="fill: rgb(255, 255, 255); stroke: rgb(51, 51, 51);"/><circle r="25" class="node" id="4_0" cx="1606.5" cy="370" style="fill: rgb(255, 255, 255); stroke: rgb(51, 51, 51);"/><circle r="25" class="node" id="4_1" cx="1606.5" cy="520" style="fill: rgb(255, 255, 255); stroke: rgb(51, 51, 51);"/></g><defs><marker id="arrow" viewBox="0 -5 10 10" markerWidth="7" markerHeight="7" orient="auto" refX="82"><path d="M0,-5L10,0L0,5" style="stroke: rgb(80, 80, 80); fill: rgb(80, 80, 80);"/></marker></defs></svg>