<svg xmlns="http://www.w3.org/2000/svg" width="1707" height="940" style="cursor: move;"><g transform="translate(29,-1) scale(1)"><path class="link" marker-end="" d="M428.5,437, 703.5,204.5" style="stroke-width: 1.79; stroke-opacity: 0.33; stroke: rgb(80, 80, 80); fill: none;"></path><path class="link" marker-end="" d="M428.5,437, 703.5,277.5" style="stroke-width: 1.79; stroke-opacity: 0.33; stroke: rgb(80, 80, 80); fill: none;"></path><path class="link" marker-end="" d="M428.5,437, 703.5,350.5" style="stroke-width: 1.79; stroke-opacity: 0.33; stroke: rgb(80, 80, 80); fill: none;"></path><path class="link" marker-end="" d="M428.5,437, 703.5,423.5" style="stroke-width: 1.79; stroke-opacity: 0.33; stroke: rgb(80, 80, 80); fill: none;"></path><path class="link" marker-end="" d="M428.5,437, 703.5,496.5" style="stroke-width: 1.79; stroke-opacity: 0.33; stroke: rgb(80, 80, 80); fill: none;"></path><path class="link" marker-end="" d="M428.5,437, 703.5,569.5" style="stroke-width: 1.79; stroke-opacity: 0.33; stroke: rgb(80, 80, 80); fill: none;"></path><path class="link" marker-end="" d="M428.5,437, 703.5,642.5" style="stroke-width: 1.79; stroke-opacity: 0.33; stroke: rgb(80, 80, 80); fill: none;"></path><path class="link" marker-end="" d="M428.5,437, 703.5,715.5" style="stroke-width: 1.79; stroke-opacity: 0.33; stroke: rgb(80, 80, 80); fill: none;"></path><path class="link" marker-end="" d="M428.5,437, 703.5,788.5" style="stroke-width: 1.79; stroke-opacity: 0.33; stroke: rgb(80, 80, 80); fill: none;"></path><path class="link" marker-end="" d="M428.5,483, 703.5,204.5" style="stroke-width: 1.79; stroke-opacity: 0.33; stroke: rgb(80, 80, 80); fill: none;"></path><path class="link" marker-end="" d="M428.5,483, 703.5,277.5" style="stroke-width: 1.79; stroke-opacity: 0.33; stroke: rgb(80, 80, 80); fill: none;"></path><path class="link" marker-end="" d="M428.5,483, 703.5,350.5" style="stroke-width: 1.79; stroke-opacity: 0.33; stroke: rgb(80, 80, 80); fill: none;"></path><path class="link" marker-end="" d="M428.5,483, 703.5,423.5" style="stroke-width: 1.79; stroke-opacity: 0.33; stroke: rgb(80, 80, 80); fill: none;"></path><path class="link" marker-end="" d="M428.5,483, 703.5,496.5" style="stroke-width: 1.79; stroke-opacity: 0.33; stroke: rgb(80, 80, 80); fill: none;"></path><path class="link" marker-end="" d="M428.5,483, 703.5,569.5" style="stroke-width: 1.79; stroke-opacity: 0.33; stroke: rgb(80, 80, 80); fill: none;"></path><path class="link" marker-end="" d="M428.5,483, 703.5,642.5" style="stroke-width: 1.79; stroke-opacity: 0.33; stroke: rgb(80, 80, 80); fill: none;"></path><path class="link" marker-end="" d="M428.5,483, 703.5,715.5" style="stroke-width: 1.79; stroke-opacity: 0.33; stroke: rgb(80, 80, 80); fill: none;"></path><path class="link" marker-end="" d="M428.5,483, 703.5,788.5" style="stroke-width: 1.79; stroke-opacity: 0.33; stroke: rgb(80, 80, 80); fill: none;"></path><path class="link" marker-end="" d="M703.5,131.5, 978.5,307.5" style="stroke-width: 1.79; stroke-opacity: 0.33; stroke: rgb(80, 80, 80); fill: none;"></path><path class="link" marker-end="" d="M703.5,131.5, 978.5,368.5" style="stroke-width: 1.79; stroke-opacity: 0.33; stroke: rgb(80, 80, 80); fill: none;"></path><path class="link" marker-end="" d="M703.5,131.5, 978.5,429.5" style="stroke-width: 1.79; stroke-opacity: 0.33; stroke: rgb(80, 80, 80); fill: none;"></path><path class="link" marker-end="" d="M703.5,131.5, 978.5,490.5" style="stroke-width: 1.79; stroke-opacity: 0.33; stroke: rgb(80, 80, 80); fill: none;"></path><path class="link" marker-end="" d="M703.5,131.5, 978.5,551.5" style="stroke-width: 1.79; stroke-opacity: 0.33; stroke: rgb(80, 80, 80); fill: none;"></path><path class="link" marker-end="" d="M703.5,131.5, 978.5,612.5" style="stroke-width: 1.79; stroke-opacity: 0.33; stroke: rgb(80, 80, 80); fill: none;"></path><path class="link" marker-end="" d="M703.5,131.5, 978.5,673.5" style="stroke-width: 1.79; stroke-opacity: 0.33; stroke: rgb(80, 80, 80); fill: none;"></path><path class="link" marker-end="" d="M703.5,204.5, 978.5,307.5" style="stroke-width: 1.79; stroke-opacity: 0.33; stroke: rgb(80, 80, 80); fill: none;"></path><path class="link" marker-end="" d="M703.5,204.5, 978.5,368.5" style="stroke-width: 1.79; stroke-opacity: 0.33; stroke: rgb(80, 80, 80); fill: none;"></path><path class="link" marker-end="" d="M703.5,204.5, 978.5,429.5" style="stroke-width: 1.79; stroke-opacity: 0.33; stroke: rgb(80, 80, 80); fill: none;"></path><path class="link" marker-end="" d="M703.5,204.5, 978.5,490.5" style="stroke-width: 1.79; stroke-opacity: 0.33; stroke: rgb(80, 80, 80); fill: none;"></path><path class="link" marker-end="" d="M703.5,204.5, 978.5,551.5" style="stroke-width: 1.79; stroke-opacity: 0.33; stroke: rgb(80, 80, 80); fill: none;"></path><path class="link" marker-end="" d="M703.5,204.5, 978.5,612.5" style="stroke-width: 1.79; stroke-opacity: 0.33; stroke: rgb(80, 80, 80); fill: none;"></path><path class="link" marker-end="" d="M703.5,204.5, 978.5,673.5" style="stroke-width: 1.79; stroke-opacity: 0.33; stroke: rgb(80, 80, 80); fill: none;"></path><path class="link" marker-end="" d="M703.5,277.5, 978.5,307.5" style="stroke-width: 1.79; stroke-opacity: 0.33; stroke: rgb(80, 80, 80); fill: none;"></path><path class="link" marker-end="" d="M703.5,277.5, 978.5,368.5" style="stroke-width: 1.79; stroke-opacity: 0.33; stroke: rgb(80, 80, 80); fill: none;"></path><path class="link" marker-end="" d="M703.5,277.5, 978.5,429.5" style="stroke-width: 1.79; stroke-opacity: 0.33; stroke: rgb(80, 80, 80); fill: none;"></path><path class="link" marker-end="" d="M703.5,277.5, 978.5,490.5" style="stroke-width: 1.79; stroke-opacity: 0.33; stroke: rgb(80, 80, 80); fill: none;"></path><path class="link" marker-end="" d="M703.5,277.5, 978.5,551.5" style="stroke-width: 1.79; stroke-opacity: 0.33; stroke: rgb(80, 80, 80); fill: none;"></path><path class="link" marker-end="" d="M703.5,277.5, 978.5,612.5" style="stroke-width: 1.79; stroke-opacity: 0.33; stroke: rgb(80, 80, 80); fill: none;"></path><path class="link" marker-end="" d="M703.5,277.5, 978.5,673.5" style="stroke-width: 1.79; stroke-opacity: 0.33; stroke: rgb(80, 80, 80); fill: none;"></path><path class="link" marker-end="" d="M703.5,350.5, 978.5,307.5" style="stroke-width: 1.79; stroke-opacity: 0.33; stroke: rgb(80, 80, 80); fill: none;"></path><path class="link" marker-end="" d="M703.5,350.5, 978.5,368.5" style="stroke-width: 1.79; stroke-opacity: 0.33; stroke: rgb(80, 80, 80); fill: none;"></path><path class="link" marker-end="" d="M703.5,350.5, 978.5,429.5" style="stroke-width: 1.79; stroke-opacity: 0.33; stroke: rgb(80, 80, 80); fill: none;"></path><path class="link" marker-end="" d="M703.5,350.5, 978.5,490.5" style="stroke-width: 1.79; stroke-opacity: 0.33; stroke: rgb(80, 80, 80); fill: none;"></path><path class="link" marker-end="" d="M703.5,350.5, 978.5,551.5" style="stroke-width: 1.79; stroke-opacity: 0.33; stroke: rgb(80, 80, 80); fill: none;"></path><path class="link" marker-end="" d="M703.5,350.5, 978.5,612.5" style="stroke-width: 1.79; stroke-opacity: 0.33; stroke: rgb(80, 80, 80); fill: none;"></path><path class="link" marker-end="" d="M703.5,350.5, 978.5,673.5" style="stroke-width: 1.79; stroke-opacity: 0.33; stroke: rgb(80, 80, 80); fill: none;"></path><path class="link" marker-end="" d="M703.5,423.5, 978.5,307.5" style="stroke-width: 1.79; stroke-opacity: 0.33; stroke: rgb(80, 80, 80); fill: none;"></path><path class="link" marker-end="" d="M703.5,423.5, 978.5,368.5" style="stroke-width: 1.79; stroke-opacity: 0.33; stroke: rgb(80, 80, 80); fill: none;"></path><path class="link" marker-end="" d="M703.5,423.5, 978.5,429.5" style="stroke-width: 1.79; stroke-opacity: 0.33; stroke: rgb(80, 80, 80); fill: none;"></path><path class="link" marker-end="" d="M703.5,423.5, 978.5,490.5" style="stroke-width: 1.79; stroke-opacity: 0.33; stroke: rgb(80, 80, 80); fill: none;"></path><path class="link" marker-end="" d="M703.5,423.5, 978.5,551.5" style="stroke-width: 1.79; stroke-opacity: 0.33; stroke: rgb(80, 80, 80); fill: none;"></path><path class="link" marker-end="" d="M703.5,423.5, 978.5,612.5" style="stroke-width: 1.79; stroke-opacity: 0.33; stroke: rgb(80, 80, 80); fill: none;"></path><path class="link" marker-end="" d="M703.5,423.5, 978.5,673.5" style="stroke-width: 1.79; stroke-opacity: 0.33; stroke: rgb(80, 80, 80); fill: none;"></path><path class="link" marker-end="" d="M703.5,496.5, 978.5,307.5" style="stroke-width: 1.79; stroke-opacity: 0.33; stroke: rgb(80, 80, 80); fill: none;"></path><path class="link" marker-end="" d="M703.5,496.5, 978.5,368.5" style="stroke-width: 1.79; stroke-opacity: 0.33; stroke: rgb(80, 80, 80); fill: none;"></path><path class="link" marker-end="" d="M703.5,496.5, 978.5,429.5" style="stroke-width: 1.79; stroke-opacity: 0.33; stroke: rgb(80, 80, 80); fill: none;"></path><path class="link" marker-end="" d="M703.5,496.5, 978.5,490.5" style="stroke-width: 1.79; stroke-opacity: 0.33; stroke: rgb(80, 80, 80); fill: none;"></path><path class="link" marker-end="" d="M703.5,496.5, 978.5,551.5" style="stroke-width: 1.79; stroke-opacity: 0.33; stroke: rgb(80, 80, 80); fill: none;"></path><path class="link" marker-end="" d="M703.5,496.5, 978.5,612.5" style="stroke-width: 1.79; stroke-opacity: 0.33; stroke: rgb(80, 80, 80); fill: none;"></path><path class="link" marker-end="" d="M703.5,496.5, 978.5,673.5" style="stroke-width: 1.79; stroke-opacity: 0.33; stroke: rgb(80, 80, 80); fill: none;"></path><path class="link" marker-end="" d="M703.5,569.5, 978.5,307.5" style="stroke-width: 1.79; stroke-opacity: 0.33; stroke: rgb(80, 80, 80); fill: none;"></path><path class="link" marker-end="" d="M703.5,569.5, 978.5,368.5" style="stroke-width: 1.79; stroke-opacity: 0.33; stroke: rgb(80, 80, 80); fill: none;"></path><path class="link" marker-end="" d="M703.5,569.5, 978.5,429.5" style="stroke-width: 1.79; stroke-opacity: 0.33; stroke: rgb(80, 80, 80); fill: none;"></path><path class="link" marker-end="" d="M703.5,569.5, 978.5,490.5" style="stroke-width: 1.79; stroke-opacity: 0.33; stroke: rgb(80, 80, 80); fill: none;"></path><path class="link" marker-end="" d="M703.5,569.5, 978.5,551.5" style="stroke-width: 1.79; stroke-opacity: 0.33; stroke: rgb(80, 80, 80); fill: none;"></path><path class="link" marker-end="" d="M703.5,569.5, 978.5,612.5" style="stroke-width: 1.79; stroke-opacity: 0.33; stroke: rgb(80, 80, 80); fill: none;"></path><path class="link" marker-end="" d="M703.5,569.5, 978.5,673.5" style="stroke-width: 1.79; stroke-opacity: 0.33; stroke: rgb(80, 80, 80); fill: none;"></path><path class="link" marker-end="" d="M703.5,642.5, 978.5,307.5" style="stroke-width: 1.79; stroke-opacity: 0.33; stroke: rgb(80, 80, 80); fill: none;"></path><path class="link" marker-end="" d="M703.5,642.5, 978.5,368.5" style="stroke-width: 1.79; stroke-opacity: 0.33; stroke: rgb(80, 80, 80); fill: none;"></path><path class="link" marker-end="" d="M703.5,642.5, 978.5,429.5" style="stroke-width: 1.79; stroke-opacity: 0.33; stroke: rgb(80, 80, 80); fill: none;"></path><path class="link" marker-end="" d="M703.5,642.5, 978.5,490.5" style="stroke-width: 1.79; stroke-opacity: 0.33; stroke: rgb(80, 80, 80); fill: none;"></path><path class="link" marker-end="" d="M703.5,642.5, 978.5,551.5" style="stroke-width: 1.79; stroke-opacity: 0.33; stroke: rgb(80, 80, 80); fill: none;"></path><path class="link" marker-end="" d="M703.5,642.5, 978.5,612.5" style="stroke-width: 1.79; stroke-opacity: 0.33; stroke: rgb(80, 80, 80); fill: none;"></path><path class="link" marker-end="" d="M703.5,642.5, 978.5,673.5" style="stroke-width: 1.79; stroke-opacity: 0.33; stroke: rgb(80, 80, 80); fill: none;"></path><path class="link" marker-end="" d="M703.5,715.5, 978.5,307.5" style="stroke-width: 1.79; stroke-opacity: 0.33; stroke: rgb(80, 80, 80); fill: none;"></path><path class="link" marker-end="" d="M703.5,715.5, 978.5,368.5" style="stroke-width: 1.79; stroke-opacity: 0.33; stroke: rgb(80, 80, 80); fill: none;"></path><path class="link" marker-end="" d="M703.5,715.5, 978.5,429.5" style="stroke-width: 1.79; stroke-opacity: 0.33; stroke: rgb(80, 80, 80); fill: none;"></path><path class="link" marker-end="" d="M703.5,715.5, 978.5,490.5" style="stroke-width: 1.79; stroke-opacity: 0.33; stroke: rgb(80, 80, 80); fill: none;"></path><path class="link" marker-end="" d="M703.5,715.5, 978.5,551.5" style="stroke-width: 1.79; stroke-opacity: 0.33; stroke: rgb(80, 80, 80); fill: none;"></path><path class="link" marker-end="" d="M703.5,715.5, 978.5,612.5" style="stroke-width: 1.79; stroke-opacity: 0.33; stroke: rgb(80, 80, 80); fill: none;"></path><path class="link" marker-end="" d="M703.5,715.5, 978.5,673.5" style="stroke-width: 1.79; stroke-opacity: 0.33; stroke: rgb(80, 80, 80); fill: none;"></path><path class="link" marker-end="" d="M703.5,788.5, 978.5,307.5" style="stroke-width: 1.79; stroke-opacity: 0.33; stroke: rgb(80, 80, 80); fill: none;"></path><path class="link" marker-end="" d="M703.5,788.5, 978.5,368.5" style="stroke-width: 1.79; stroke-opacity: 0.33; stroke: rgb(80, 80, 80); fill: none;"></path><path class="link" marker-end="" d="M703.5,788.5, 978.5,429.5" style="stroke-width: 1.79; stroke-opacity: 0.33; stroke: rgb(80, 80, 80); fill: none;"></path><path class="link" marker-end="" d="M703.5,788.5, 978.5,490.5" style="stroke-width: 1.79; stroke-opacity: 0.33; stroke: rgb(80, 80, 80); fill: none;"></path><path class="link" marker-end="" d="M703.5,788.5, 978.5,551.5" style="stroke-width: 1.79; stroke-opacity: 0.33; stroke: rgb(80, 80, 80); fill: none;"></path><path class="link" marker-end="" d="M703.5,788.5, 978.5,612.5" style="stroke-width: 1.79; stroke-opacity: 0.33; stroke: rgb(80, 80, 80); fill: none;"></path><path class="link" marker-end="" d="M703.5,788.5, 978.5,673.5" style="stroke-width: 1.79; stroke-opacity: 0.33; stroke: rgb(80, 80, 80); fill: none;"></path><path class="link" marker-end="" d="M978.5,246.5, 1253.5,362.5" style="stroke-width: 1.79; stroke-opacity: 0.33; stroke: rgb(80, 80, 80); fill: none;"></path><path class="link" marker-end="" d="M978.5,307.5, 1253.5,362.5" style="stroke-width: 1.79; stroke-opacity: 0.33; stroke: rgb(80, 80, 80); fill: none;"></path><path class="link" marker-end="" d="M978.5,368.5, 1253.5,362.5" style="stroke-width: 1.79; stroke-opacity: 0.33; stroke: rgb(80, 80, 80); fill: none;"></path><path class="link" marker-end="" d="M978.5,429.5, 1253.5,362.5" style="stroke-width: 1.79; stroke-opacity: 0.33; stroke: rgb(80, 80, 80); fill: none;"></path><path class="link" marker-end="" d="M978.5,490.5, 1253.5,362.5" style="stroke-width: 1.79; stroke-opacity: 0.33; stroke: rgb(80, 80, 80); fill: none;"></path><path class="link" marker-end="" d="M978.5,551.5, 1253.5,362.5" style="stroke-width: 1.79; stroke-opacity: 0.33; stroke: rgb(80, 80, 80); fill: none;"></path><path class="link" marker-end="" d="M978.5,612.5, 1253.5,362.5" style="stroke-width: 1.79; stroke-opacity: 0.33; stroke: rgb(80, 80, 80); fill: none;"></path><path class="link" marker-end="" d="M978.5,673.5, 1253.5,362.5" style="stroke-width: 1.79; stroke-opacity: 0.33; stroke: rgb(80, 80, 80); fill: none;"></path><path class="link" marker-end="" d="M428.5,437, 703.5,131.5" style="stroke-width: 1.79; stroke-opacity: 0.33; stroke: rgb(80, 80, 80); fill: none;"></path><path class="link" marker-end="" d="M428.5,483, 703.5,131.5" style="stroke-width: 1.79; stroke-opacity: 0.33; stroke: rgb(80, 80, 80); fill: none;"></path><path class="link" marker-end="" d="M703.5,131.5, 978.5,246.5" style="stroke-width: 1.79; stroke-opacity: 0.33; stroke: rgb(80, 80, 80); fill: none;"></path><path class="link" marker-end="" d="M703.5,204.5, 978.5,246.5" style="stroke-width: 1.79; stroke-opacity: 0.33; stroke: rgb(80, 80, 80); fill: none;"></path><path class="link" marker-end="" d="M703.5,277.5, 978.5,246.5" style="stroke-width: 1.79; stroke-opacity: 0.33; stroke: rgb(80, 80, 80); fill: none;"></path><path class="link" marker-end="" d="M703.5,350.5, 978.5,246.5" style="stroke-width: 1.79; stroke-opacity: 0.33; stroke: rgb(80, 80, 80); fill: none;"></path><path class="link" marker-end="" d="M703.5,423.5, 978.5,246.5" style="stroke-width: 1.79; stroke-opacity: 0.33; stroke: rgb(80, 80, 80); fill: none;"></path><path class="link" marker-end="" d="M703.5,496.5, 978.5,246.5" style="stroke-width: 1.79; stroke-opacity: 0.33; stroke: rgb(80, 80, 80); fill: none;"></path><path class="link" marker-end="" d="M703.5,569.5, 978.5,246.5" style="stroke-width: 1.79; stroke-opacity: 0.33; stroke: rgb(80, 80, 80); fill: none;"></path><path class="link" marker-end="" d="M703.5,642.5, 978.5,246.5" style="stroke-width: 1.79; stroke-opacity: 0.33; stroke: rgb(80, 80, 80); fill: none;"></path><path class="link" marker-end="" d="M703.5,715.5, 978.5,246.5" style="stroke-width: 1.79; stroke-opacity: 0.33; stroke: rgb(80, 80, 80); fill: none;"></path><path class="link" marker-end="" d="M703.5,788.5, 978.5,246.5" style="stroke-width: 1.79; stroke-opacity: 0.33; stroke: rgb(80, 80, 80); fill: none;"></path><path class="link" marker-end="" d="M978.5,246.5, 1253.5,427.5" style="stroke-width: 1.79; stroke-opacity: 0.33; stroke: rgb(80, 80, 80); fill: none;"></path><path class="link" marker-end="" d="M978.5,246.5, 1253.5,492.5" style="stroke-width: 1.79; stroke-opacity: 0.33; stroke: rgb(80, 80, 80); fill: none;"></path><path class="link" marker-end="" d="M978.5,246.5, 1253.5,557.5" style="stroke-width: 1.79; stroke-opacity: 0.33; stroke: rgb(80, 80, 80); fill: none;"></path><path class="link" marker-end="" d="M978.5,307.5, 1253.5,427.5" style="stroke-width: 1.79; stroke-opacity: 0.33; stroke: rgb(80, 80, 80); fill: none;"></path><path class="link" marker-end="" d="M978.5,307.5, 1253.5,492.5" style="stroke-width: 1.79; stroke-opacity: 0.33; stroke: rgb(80, 80, 80); fill: none;"></path><path class="link" marker-end="" d="M978.5,307.5, 1253.5,557.5" style="stroke-width: 1.79; stroke-opacity: 0.33; stroke: rgb(80, 80, 80); fill: none;"></path><path class="link" marker-end="" d="M978.5,368.5, 1253.5,427.5" style="stroke-width: 1.79; stroke-opacity: 0.33; stroke: rgb(80, 80, 80); fill: none;"></path><path class="link" marker-end="" d="M978.5,368.5, 1253.5,492.5" style="stroke-width: 1.79; stroke-opacity: 0.33; stroke: rgb(80, 80, 80); fill: none;"></path><path class="link" marker-end="" d="M978.5,368.5, 1253.5,557.5" style="stroke-width: 1.79; stroke-opacity: 0.33; stroke: rgb(80, 80, 80); fill: none;"></path><path class="link" marker-end="" d="M978.5,429.5, 1253.5,427.5" style="stroke-width: 1.79; stroke-opacity: 0.33; stroke: rgb(80, 80, 80); fill: none;"></path><path class="link" marker-end="" d="M978.5,429.5, 1253.5,492.5" style="stroke-width: 1.79; stroke-opacity: 0.33; stroke: rgb(80, 80, 80); fill: none;"></path><path class="link" marker-end="" d="M978.5,429.5, 1253.5,557.5" style="stroke-width: 1.79; stroke-opacity: 0.33; stroke: rgb(80, 80, 80); fill: none;"></path><path class="link" marker-end="" d="M978.5,490.5, 1253.5,427.5" style="stroke-width: 1.79; stroke-opacity: 0.33; stroke: rgb(80, 80, 80); fill: none;"></path><path class="link" marker-end="" d="M978.5,490.5, 1253.5,492.5" style="stroke-width: 1.79; stroke-opacity: 0.33; stroke: rgb(80, 80, 80); fill: none;"></path><path class="link" marker-end="" d="M978.5,490.5, 1253.5,557.5" style="stroke-width: 1.79; stroke-opacity: 0.33; stroke: rgb(80, 80, 80); fill: none;"></path><path class="link" marker-end="" d="M978.5,551.5, 1253.5,427.5" style="stroke-width: 1.79; stroke-opacity: 0.33; stroke: rgb(80, 80, 80); fill: none;"></path><path class="link" marker-end="" d="M978.5,551.5, 1253.5,492.5" style="stroke-width: 1.79; stroke-opacity: 0.33; stroke: rgb(80, 80, 80); fill: none;"></path><path class="link" marker-end="" d="M978.5,551.5, 1253.5,557.5" style="stroke-width: 1.79; stroke-opacity: 0.33; stroke: rgb(80, 80, 80); fill: none;"></path><path class="link" marker-end="" d="M978.5,612.5, 1253.5,427.5" style="stroke-width: 1.79; stroke-opacity: 0.33; stroke: rgb(80, 80, 80); fill: none;"></path><path class="link" marker-end="" d="M978.5,612.5, 1253.5,492.5" style="stroke-width: 1.79; stroke-opacity: 0.33; stroke: rgb(80, 80, 80); fill: none;"></path><path class="link" marker-end="" d="M978.5,612.5, 1253.5,557.5" style="stroke-width: 1.79; stroke-opacity: 0.33; stroke: rgb(80, 80, 80); fill: none;"></path><path class="link" marker-end="" d="M978.5,673.5, 1253.5,427.5" style="stroke-width: 1.79; stroke-opacity: 0.33; stroke: rgb(80, 80, 80); fill: none;"></path><path class="link" marker-end="" d="M978.5,673.5, 1253.5,492.5" style="stroke-width: 1.79; stroke-opacity: 0.33; stroke: rgb(80, 80, 80); fill: none;"></path><path class="link" marker-end="" d="M978.5,673.5, 1253.5,557.5" style="stroke-width: 1.79; stroke-opacity: 0.33; stroke: rgb(80, 80, 80); fill: none;"></path><path class="link" marker-end="" d="M1253.5,362.5, 1528.5,412" style="stroke-width: 1.79; stroke-opacity: 0.33; stroke: rgb(80, 80, 80); fill: none;"></path><path class="link" marker-end="" d="M1253.5,362.5, 1528.5,508" style="stroke-width: 1.79; stroke-opacity: 0.33; stroke: rgb(80, 80, 80); fill: none;"></path><path class="link" marker-end="" d="M1253.5,427.5, 1528.5,412" style="stroke-width: 1.79; stroke-opacity: 0.33; stroke: rgb(80, 80, 80); fill: none;"></path><path class="link" marker-end="" d="M1253.5,427.5, 1528.5,508" style="stroke-width: 1.79; stroke-opacity: 0.33; stroke: rgb(80, 80, 80); fill: none;"></path><path class="link" marker-end="" d="M1253.5,492.5, 1528.5,412" style="stroke-width: 1.79; stroke-opacity: 0.33; stroke: rgb(80, 80, 80); fill: none;"></path><path class="link" marker-end="" d="M1253.5,492.5, 1528.5,508" style="stroke-width: 1.79; stroke-opacity: 0.33; stroke: rgb(80, 80, 80); fill: none;"></path><path class="link" marker-end="" d="M1253.5,557.5, 1528.5,412" style="stroke-width: 1.79; stroke-opacity: 0.33; stroke: rgb(80, 80, 80); fill: none;"></path><path class="link" marker-end="" d="M1253.5,557.5, 1528.5,508" style="stroke-width: 1.79; stroke-opacity: 0.33; stroke: rgb(80, 80, 80); fill: none;"></path><circle r="10" class="node" id="0_0" cx="428.5" cy="437" style="fill: rgb(255, 255, 255); stroke: rgb(51, 51, 51);"></circle><circle r="10" class="node" id="0_1" cx="428.5" cy="483" style="fill: rgb(255, 255, 255); stroke: rgb(51, 51, 51);"></circle><circle r="10" class="node" id="1_0" cx="703.5" cy="131.5" style="fill: rgb(255, 255, 255); stroke: rgb(51, 51, 51);"></circle><circle r="10" class="node" id="1_1" cx="703.5" cy="204.5" style="fill: rgb(255, 255, 255); stroke: rgb(51, 51, 51);"></circle><circle r="10" class="node" id="1_2" cx="703.5" cy="277.5" style="fill: rgb(255, 255, 255); stroke: rgb(51, 51, 51);"></circle><circle r="10" class="node" id="1_3" cx="703.5" cy="350.5" style="fill: rgb(255, 255, 255); stroke: rgb(51, 51, 51);"></circle><circle r="10" class="node" id="1_4" cx="703.5" cy="423.5" style="fill: rgb(255, 255, 255); stroke: rgb(51, 51, 51);"></circle><circle r="10" class="node" id="1_5" cx="703.5" cy="496.5" style="fill: rgb(255, 255, 255); stroke: rgb(51, 51, 51);"></circle><circle r="10" class="node" id="1_6" cx="703.5" cy="569.5" style="fill: rgb(255, 255, 255); stroke: rgb(51, 51, 51);"></circle><circle r="10" class="node" id="1_7" cx="703.5" cy="642.5" style="fill: rgb(255, 255, 255); stroke: rgb(51, 51, 51);"></circle><circle r="10" class="node" id="1_8" cx="703.5" cy="715.5" style="fill: rgb(255, 255, 255); stroke: rgb(51, 51, 51);"></circle><circle r="10" class="node" id="1_9" cx="703.5" cy="788.5" style="fill: rgb(255, 255, 255); stroke: rgb(51, 51, 51);"></circle><circle r="10" class="node" id="2_0" cx="978.5" cy="246.5" style="fill: rgb(255, 255, 255); stroke: rgb(51, 51, 51);"></circle><circle r="10" class="node" id="2_1" cx="978.5" cy="307.5" style="fill: rgb(255, 255, 255); stroke: rgb(51, 51, 51);"></circle><circle r="10" class="node" id="2_2" cx="978.5" cy="368.5" style="fill: rgb(255, 255, 255); stroke: rgb(51, 51, 51);"></circle><circle r="10" class="node" id="2_3" cx="978.5" cy="429.5" style="fill: rgb(255, 255, 255); stroke: rgb(51, 51, 51);"></circle><circle r="10" class="node" id="2_4" cx="978.5" cy="490.5" style="fill: rgb(255, 255, 255); stroke: rgb(51, 51, 51);"></circle><circle r="10" class="node" id="2_5" cx="978.5" cy="551.5" style="fill: rgb(255, 255, 255); stroke: rgb(51, 51, 51);"></circle><circle r="10" class="node" id="2_6" cx="978.5" cy="612.5" style="fill: rgb(255, 255, 255); stroke: rgb(51, 51, 51);"></circle><circle r="10" class="node" id="2_7" cx="978.5" cy="673.5" style="fill: rgb(255, 255, 255); stroke: rgb(51, 51, 51);"></circle><circle r="10" class="node" id="3_0" cx="1253.5" cy="362.5" style="fill: rgb(255, 255, 255); stroke: rgb(51, 51, 51);"></circle><text class="text" dy=".35em" x="393.5" y="828.5" style="font-size: 12px;"></text><text class="text" dy=".35em" x="668.5" y="828.5" style="font-size: 12px;"></text><text class="text" dy=".35em" x="943.5" y="828.5" style="font-size: 12px;"></text><text class="text" dy=".35em" x="1218.5" y="828.5" style="font-size: 12px;"></text><circle r="10" class="node" id="3_1" cx="1253.5" cy="427.5" style="fill: rgb(255, 255, 255); stroke: rgb(51, 51, 51);"></circle><circle r="10" class="node" id="3_2" cx="1253.5" cy="492.5" style="fill: rgb(255, 255, 255); stroke: rgb(51, 51, 51);"></circle><circle r="10" class="node" id="3_3" cx="1253.5" cy="557.5" style="fill: rgb(255, 255, 255); stroke: rgb(51, 51, 51);"></circle><circle r="10" class="node" id="4_0" cx="1528.5" cy="412" style="fill: rgb(255, 255, 255); stroke: rgb(51, 51, 51);"></circle><circle r="10" class="node" id="4_1" cx="1528.5" cy="508" style="fill: rgb(255, 255, 255); stroke: rgb(51, 51, 51);"></circle><text class="text" dy=".35em" x="1493.5" y="828.5" style="font-size: 12px;"></text></g><defs><marker id="arrow" viewBox="0 -5 10 10" markerWidth="7" markerHeight="7" orient="auto" refX="40"><path d="M0,-5L10,0L0,5" style="stroke: rgb(80, 80, 80); fill: rgb(80, 80, 80);"></path></marker></defs></svg>